<svg width="59" height="59" viewBox="0 0 59 59" fill="none" xmlns="http://www.w3.org/2000/svg">
    <path d="M30.7054 27.9148C30.7054 27.9148 57.9832 45.6844 47.6041 52.139C35.8403 59.4472 30.7054 27.9148 30.7054 27.9148Z" fill="#ECD7CA"/>
    <path d="M30.995 28.7203C30.995 28.7203 40.3439 59.8892 28.273 58.1997C14.5942 56.2835 30.995 28.7203 30.995 28.7203Z" fill="#ECD7CA"/>
    <path d="M30.6969 29.5224C30.6969 29.5224 17.7422 59.5134 9.63046 50.4703C0.436802 40.2238 30.6969 29.5224 30.6969 29.5224Z" fill="#ECD7CA"/>
    <path d="M29.9535 29.9543C29.9535 29.9543 0.753163 44.7279 0.396334 32.5627C-0.0070269 18.7845 29.9535 29.9543 29.9535 29.9543Z" fill="#ECD7CA"/>
    <path d="M29.1042 29.8086C29.1042 29.8086 -2.66976 22.4521 4.89423 12.8594C13.4644 1.9908 29.1042 29.8086 29.1042 29.8086Z" fill="#ECD7CA"/>
    <path d="M28.5585 29.1505C28.5585 29.1505 9.07072 3.11064 21.0168 0.577515C34.5544 -2.29287 28.5585 29.1505 28.5585 29.1505Z" fill="#ECD7CA"/>
    <path d="M28.5672 28.295C28.5672 28.295 30.4823 -4.24731 41.2229 1.46426C53.3937 7.93984 28.5672 28.295 28.5672 28.295Z" fill="#ECD7CA"/>
    <path d="M29.1154 27.6384C29.1154 27.6384 51.546 3.82227 56.0539 15.1058C61.1611 27.8916 29.1154 27.6384 29.1154 27.6384Z" fill="#ECD7CA"/>
    <path d="M29.9629 27.4884C29.9629 27.4884 62.4059 23.541 58.5729 35.1163C54.2299 48.2346 29.9629 27.4884 29.9629 27.4884Z" fill="#ECD7CA"/>
    <path d="M35.5547 24.398C35.6963 24.6069 35.8268 24.8233 35.9478 25.0441C36.0684 25.2672 36.1774 25.4942 36.2755 25.7264C36.3737 25.9586 36.4597 26.1971 36.5354 26.4384C36.6102 26.6784 36.6719 26.9232 36.7233 27.1709C36.7746 27.4186 36.8124 27.6673 36.8385 27.92C36.8651 28.1703 36.879 28.423 36.8808 28.6759C36.8816 28.9275 36.8711 29.1805 36.8476 29.4323C36.824 29.684 36.7873 29.9345 36.7403 30.1819C36.6918 30.4302 36.6317 30.6762 36.5603 30.9178C36.4884 31.1616 36.4043 31.3996 36.3076 31.6339C36.2131 31.8687 36.1065 32.0975 35.9886 32.3217C35.8698 32.5446 35.7411 32.762 35.6025 32.9738C35.4616 33.1852 35.3136 33.3892 35.1534 33.5873C34.9937 33.783 34.8255 33.9723 34.6483 34.1514C34.4697 34.3314 34.2832 34.5026 34.0886 34.6651C33.894 34.8275 33.6918 34.9788 33.4817 35.1213C33.273 35.2629 33.0562 35.3956 32.8347 35.5153C32.6118 35.636 32.3837 35.746 32.1503 35.8452C31.917 35.9445 31.6789 36.0307 31.438 36.1067C31.1961 36.1813 30.9504 36.2442 30.7033 36.2959C30.4552 36.3463 30.2056 36.3854 29.9546 36.4134C29.7026 36.4399 29.4506 36.4543 29.1961 36.4561C28.9441 36.4583 28.6919 36.4484 28.4387 36.4249C28.1865 36.4028 27.9371 36.3667 27.6885 36.3198C27.4399 36.2729 27.195 36.2133 26.9524 36.1421C26.7097 36.0708 26.4708 35.9869 26.2375 35.8931C26.0032 35.7979 25.7735 35.6914 25.5494 35.575C25.3257 35.4564 25.1086 35.3292 24.8975 35.1898C24.685 35.0513 24.4818 34.9025 24.2866 34.7442C24.089 34.5855 23.9007 34.4164 23.7213 34.2393C23.5404 34.0631 23.3699 33.878 23.2086 33.6824C23.0469 33.4892 22.8955 33.287 22.7539 33.0781C22.6123 32.8692 22.4804 32.6537 22.3608 32.432C22.2388 32.2098 22.1298 31.9829 22.0331 31.7497C21.934 31.5161 21.8475 31.28 21.7732 31.0377C21.6984 30.7977 21.6344 30.5525 21.5853 30.3052C21.534 30.0575 21.4952 29.8074 21.4687 29.5571C21.4435 29.3058 21.4296 29.053 21.4278 28.8001C21.4261 28.5472 21.4375 28.2956 21.461 28.0438C21.4846 27.7921 21.5199 27.5425 21.5683 27.2942C21.6158 27.0445 21.6755 26.8008 21.7474 26.5569C21.8202 26.3144 21.9043 26.0765 21.9987 25.8418C22.0954 25.6074 22.2021 25.3786 22.32 25.1544C22.4379 24.9301 22.5666 24.7127 22.7061 24.5023C22.8447 24.2904 22.995 24.0868 23.1538 23.8897C23.3135 23.694 23.4817 23.5047 23.6603 23.3247C23.8389 23.1447 24.0254 22.9734 24.22 22.811C24.4132 22.6495 24.6168 22.4973 24.8255 22.3557C25.0356 22.2132 25.251 22.0814 25.4739 21.9608C25.6968 21.8401 25.9249 21.7301 26.1583 21.6309C26.3902 21.5325 26.6283 21.4463 26.8692 21.3703C27.1125 21.2948 27.3558 21.2314 27.6053 21.1801C27.8525 21.1284 28.1021 21.0893 28.354 21.0627C28.606 21.0362 28.858 21.0218 29.1101 21.0196C29.3645 21.0178 29.6167 21.0277 29.8689 21.0498C30.1207 21.0742 30.3706 21.108 30.6201 21.1563C30.8673 21.2041 31.1136 21.2628 31.3562 21.334C31.5988 21.4053 31.8368 21.4878 32.0711 21.583C32.3054 21.6782 32.5351 21.7847 32.7578 21.902C32.9819 22.0183 33.2 22.1469 33.4111 22.2863C33.6212 22.4243 33.8268 22.5736 34.022 22.7318C34.2182 22.8915 34.407 23.0583 34.5873 23.2368C34.7668 23.4139 34.9373 23.5991 35.1 23.7937C35.2603 23.9879 35.4131 24.1891 35.5547 24.398Z" fill="white"/>
</svg>